<?xml version="1.0" encoding="utf-8"?>
<!-- Generator: Adobe Illustrator 16.0.2, SVG Export Plug-In . SVG Version: 6.00 Build 0)  -->
<!DOCTYPE svg PUBLIC "-//W3C//DTD SVG 1.1//EN" "http://www.w3.org/Graphics/SVG/1.1/DTD/svg11.dtd">
<svg version="1.1" id="Layer_1" xmlns="http://www.w3.org/2000/svg" xmlns:xlink="http://www.w3.org/1999/xlink" x="0px" y="0px"
	 width="477.9px" height="334.8px" viewBox="0 0 477.9 334.8" enable-background="new 0 0 477.9 334.8" xml:space="preserve">
<g transform="translate(0 0)">
	<path fill="#375159" d="M76.654,306.458c0,0-2.817,9.858,0,9.858s7.98,2.817,15.961,1.878c7.981-0.939,5.633-10.797,0-12.205
		s-4.225-12.675-4.225-12.675c-1.881-3.755-10.8,0.938-10.8,0.938L76.654,306.458z"/>
	<path fill="#375159" d="M116.562,228.246c0,0-4.832,9.043-2.079,9.635c2.753,0.594,7.207,4.432,15.206,5.201
		c7.999,0.769,7.784-9.367,2.574-11.932s-1.457-13.281-1.457-13.281c-1.043-4.066-10.752-1.359-10.752-1.359L116.562,228.246z"/>
	<ellipse fill="#F5F7FA" cx="298.318" cy="171.938" rx="154.884" ry="154.588"/>
	<path fill="#405C67" d="M174.475,124.729c0,0-9.377,66.761,24.85,119.251c34.228,52.49,99.1,70.833,99.1,70.833
		s9.379-66.761-24.849-119.251C239.348,143.069,174.475,124.729,174.475,124.729z"/>
	<path fill="#0C9BC1" d="M298.143,310.977c0.254-13.961,3.5-70.435,38.3-112.408c1.653-1.997,3.354-3.927,5.1-5.788
		c40.297-43.32,101.452-53.257,101.452-53.257s1.688,67.396-38.312,115.636c-31.955,38.524-80.833,53.176-99.219,57.512
		c-2.056,0.49-3.74,0.842-4.964,1.09c-1.534,0.311-2.367,0.443-2.367,0.443S298.104,313.068,298.143,310.977z"/>
	<path fill="#D6D6D6" d="M336.732,198.566c1.653-1.997,3.354-3.926,5.1-5.787c0.284,2.715,0.488,5.459,0.612,8.234
		c2.295,52.938-27.444,98.766-36.69,111.654c-1.686,2.358-2.686,3.617-2.686,3.617s-0.824-0.867-2.278-2.525
		c-0.658-0.762-1.458-1.693-2.357-2.783C298.689,297.015,301.935,240.541,336.732,198.566z"/>
	<path fill="#0C9BC1" d="M287.107,89.571c0,0,46.47,48.838,49.179,111.444c2.709,62.605-39.378,115.271-39.378,115.271
		s-46.473-48.838-49.179-111.445C245.024,142.236,287.107,89.571,287.107,89.571z"/>
	<line fill="#405C67" stroke="#405C67" stroke-miterlimit="10" x1="286.713" y1="92.125" x2="296.93" y2="314.514"/>
	<ellipse fill="#405C67" cx="238.95" cy="320.001" rx="238.95" ry="14.799"/>
	<line fill="#405C67" stroke="#405C67" stroke-miterlimit="10" x1="438.159" y1="254.794" x2="438.159" y2="314.564"/>
	<circle fill="#405C67" cx="438.159" cy="254.927" r="8.452"/>
	<path fill="#405C67" d="M464.118,268.681c-24.753-3.02-25.96,22.951-25.96,22.951"/>
	<line fill="#405C67" stroke="#405C67" stroke-miterlimit="10" x1="232.794" y1="50.197" x2="232.794" y2="217.58"/>
	<circle fill="#405C67" cx="232.794" cy="50.198" r="11.625"/>
	<path fill="#405C67" d="M268.462,65.848c-34.045-4.152-35.707,31.568-35.707,31.568"/>
	<path fill="#405C67" d="M53.629,138.721c-8.539,6.986,5.435,68.313,5.435,68.313s3.102,93.545,9.7,97.814
		c6.598,4.27,21.348-0.387,27.17-1.164c5.821-0.777,0.777-58.611-7.764-79.959s-1.94-52.4-1.94-52.4l46.189,8.928
		c0,0-27.945,23.678-26.781,28.723s31.056,22.123,36.485,22.9c5.431,0.776,15.915-31.051,25.23-52.789
		c9.315-21.736-63.657-35.709-63.657-35.709l-10.092-19.019C93.604,124.359,62.168,131.735,53.629,138.721z"/>
	<path fill="#9F616A" d="M58.866,55.173c0.776,1.552-2.717,20.96-2.717,20.96l3.104,5.434c0,0,17.855-6.987,15.139-8.151
		S72.063,57.89,72.063,57.89S58.091,53.621,58.866,55.173z"/>
	<circle fill="#2F2E41" cx="65.585" cy="37.462" r="23.799"/>
	<circle fill="#2F2E41" cx="63.944" cy="15.182" r="9.848"/>
	<path fill="none" stroke="#405C67" stroke-width="2" stroke-miterlimit="10" d="M421.897,124.729c0,0,9.377,66.761-24.851,119.251
		c-34.227,52.49-99.1,70.833-99.1,70.833s-9.378-66.761,24.85-119.251C357.025,143.069,421.897,124.729,421.897,124.729z"/>
	<path fill="#2F2E41" d="M68.252,19.648c0.342,0.035,0.684,0.053,1.026,0.053c5.44,0,9.85-4.41,9.85-9.85s-4.409-9.85-9.85-9.85
		c-0.343,0-0.685,0.018-1.025,0.053c5.015,0.525,8.821,4.752,8.822,9.794C77.078,14.892,73.269,19.123,68.252,19.648z"/>
	<circle fill="#9F616A" cx="66.24" cy="49.068" r="16.302"/>
	<path fill="#0C9BC1" d="M42.758,73.946c-5.047,1.164-13.586,13.585-13.586,13.585l13.587,13.591c0,0,9.704,36.486,10.867,38.039
		c7.63,10.171,41.921-12.421,41.921-12.421s-1.358-11.066-0.582-16.5c0.746-5.226-2.911-15.72-2.911-15.72
		s12.81-5.434,10.092-10.868S82.736,65.796,75.75,70.066c-6.985,4.27-20.96,0-20.96,0C50.857,71.59,46.84,72.885,42.758,73.946z"/>
	<path fill="#9F616A" d="M141.629,152.036c0,0,22.127,19.02,27.561,15.138c5.435-3.882-20.96-17.467-20.96-17.467L141.629,152.036z"
		/>
	<path fill="#9F616A" d="M42.563,145.474c3.104,3.492,17.854-5.436,15.964-9.4c-1.891-3.964-13.635,3.965-13.635,3.965
		S39.457,141.982,42.563,145.474z"/>
	<path fill="#0C9BC1" d="M42.754,92.94l-16.3,30.276c0,0,18.631,15.526,20.96,15.914c2.329,0.388-4.658,10.48-4.658,10.48
		s-20.959-14.746-29.11-22.125c-8.151-7.379,15.526-39.979,15.526-39.979l6.986-4.27L42.754,92.94z"/>
	<path fill="#0C9BC1" d="M89.909,91.768l19.02,29.5c0,0,29.111,32.604,32.993,34.157c3.881,1.553,8.538-5.822,8.538-5.822
		l-34.93-42.304l-13.2-23.677l-5.046-1.941L89.909,91.768z"/>
	<ellipse fill="#2F2E41" cx="65.585" cy="29.699" rx="16.413" ry="9.848"/>
	<rect x="99.249" y="239.596" fill="#0C9BC1" width="76.491" height="76.491"/>
	<path fill="#FFFFFF" d="M165.553,274.662c0,10.836-5.074,17.664-13.101,17.664c-4.108,0-7.237-2.193-7.778-5.453h-0.585
		c-1.448,3.393-4.432,5.25-8.438,5.25c-7.136,0-11.899-5.719-11.899-14.229c0-8.174,4.8-13.863,11.8-13.863
		c3.381-0.141,6.522,1.738,8,4.782h0.585v-4.065h5.835v18.907c0,2.354,1.3,3.772,3.641,3.772c4.051,0,6.624-4.912,6.624-12.545
		c0-12.182-9.125-20.326-22.606-20.326c-13.336,0-22.842,9.724-22.842,23.484c0,14.066,9.4,23.045,24.04,23.045
		c2.667,0.016,5.329-0.209,7.955-0.672c1.248-0.271,2.479,0.521,2.75,1.77s-0.521,2.479-1.77,2.749l0,0
		c-3.009,0.677-6.085,1.01-9.169,0.993c-17.8-0.014-29.188-11.01-29.188-28.075c0-16.656,11.625-28.091,28.573-28.091
		C154.264,249.757,165.553,259.917,165.553,274.662z M130.053,278.025c0,5.41,2.544,8.686,6.683,8.686
		c4.358,0,7.107-3.362,7.107-8.686c0-5.322-2.749-8.613-7.034-8.613C132.554,269.412,130.053,272.599,130.053,278.025
		L130.053,278.025z"/>
</g>
</svg>
